<?xml version="1.0" encoding="UTF-8"?>
<svg xmlns="http://www.w3.org/2000/svg" xmlns:xlink="http://www.w3.org/1999/xlink" width="24px" height="24px" viewBox="0 0 24 24" version="1.1">
<g id="surface1">
<path style=" stroke:none;fill-rule:nonzero;fill:rgb(0%,0%,0%);fill-opacity:1;" d="M 10.351562 13.621094 L 13.214844 16.488281 C 13.472656 16.746094 13.867188 16.800781 14.1875 16.632812 L 17.621094 14.789062 C 17.875 14.652344 18.179688 14.65625 18.429688 14.804688 L 23.4375 17.777344 C 23.796875 17.988281 23.941406 18.433594 23.773438 18.8125 C 23.34375 19.789062 22.566406 21.574219 22.253906 22.363281 C 22.191406 22.53125 22.09375 22.683594 21.957031 22.796875 C 18.621094 25.691406 11.976562 22.167969 6.890625 17.082031 C 1.808594 11.996094 -1.71875 5.355469 1.175781 2.015625 C 1.292969 1.878906 1.445312 1.785156 1.609375 1.71875 C 2.398438 1.410156 4.183594 0.628906 5.160156 0.203125 C 5.539062 0.0351562 5.984375 0.179688 6.195312 0.535156 L 9.167969 5.546875 C 9.316406 5.792969 9.320312 6.101562 9.183594 6.355469 L 7.34375 9.789062 C 7.171875 10.105469 7.230469 10.5 7.484375 10.757812 C 7.484375 10.757812 10.351562 13.621094 10.351562 13.621094 Z M 10.351562 13.621094 "/>
</g>
</svg>
